<?xml version="1.0" encoding="utf-8"?>
<!-- Generator: Adobe Illustrator 25.4.1, SVG Export Plug-In . SVG Version: 6.00 Build 0)  -->
<svg version="1.1" id="Laag_1" xmlns="http://www.w3.org/2000/svg" xmlns:xlink="http://www.w3.org/1999/xlink" x="0px" y="0px"
	 viewBox="0 0 39 39" style="enable-background:new 0 0 39 39;" xml:space="preserve">
<style type="text/css">
	.st0{fill:#FFFFFF;}
	.st1{fill:none;stroke:#81CE99;stroke-width:2;stroke-miterlimit:4;}
	.st2{fill:none;}
	.st3{fill:none;stroke:#81CE99;stroke-width:2;}
</style>
<g id="Rectangle_5" transform="matrix(0.695, -0.719, 0.719, 0.695, 11.822, 25.292)">
	<rect x="0" y="0" transform="matrix(-1 2.527731e-06 -2.527731e-06 -1 21 3)" class="st0" width="21" height="3"/>
	<rect x="1" y="1" transform="matrix(-1 2.527731e-06 -2.527731e-06 -1 21 3)" class="st1" width="19" height="1"/>
</g>
<g id="Rectangle_6" transform="matrix(0.719, 0.695, -0.695, 0.719, 13.906, 10.63)">
	<rect x="9" y="-9" transform="matrix(2.527731e-06 1 -1 2.527731e-06 12 -9)" class="st0" width="3" height="21"/>
	<rect x="10" y="-8" transform="matrix(2.527731e-06 1 -1 2.527731e-06 12 -9)" class="st1" width="1" height="19"/>
</g>
<g id="Rectangle_7">
	<rect y="0" class="st2" width="39" height="39"/>
	<rect x="1" y="1" class="st3" width="37" height="37"/>
</g>
</svg>
